<svg width="256" height="256" xmlns="http://www.w3.org/2000/svg" version="1.1" preserveAspectRatio="xMidYMid">
 <g>
  <title>Layer 1</title>
  <ellipse stroke-width="0" ry="128.50429" rx="127.10243" id="svg_4" cy="128" cx="128" stroke="#000" fill="#fff"/>
  <circle stroke="null" fill="#14151c" cx="128" cy="128" r="122.8972" id="svg_1"/>
  <path fill="#FEFEE2" d="m187.10631,41.55981c-12.98511,0.45292 -24.32,7.60911 -32.75619,17.5104c-9.34203,10.8544 -15.55692,23.72923 -20.03495,36.87188c-8.01083,-6.56542 -14.19027,-15.06462 -27.04148,-18.77071c-9.9328,-2.85145 -20.36578,-1.67385 -29.95987,5.47446c-4.54499,3.39496 -7.67606,8.52677 -9.1648,13.35139c-3.85576,12.53612 4.05267,23.69378 7.64455,27.6992l7.85329,8.41649c1.61871,1.65021 5.51779,5.95495 3.61157,12.12652c-2.05981,6.71114 -10.14941,11.05526 -18.44775,8.49526c-3.70609,-1.13034 -9.03089,-3.8912 -7.83754,-7.77846c0.49231,-1.59114 1.63052,-2.78055 2.24099,-4.15507c0.55926,-1.18154 0.82707,-2.0677 0.99643,-2.58757c1.5163,-4.95065 -0.55533,-11.39004 -5.8565,-13.0245c-4.9467,-1.5163 -10.00763,-0.31507 -11.96898,6.05342c-2.22523,7.23495 1.23668,20.36578 19.78289,26.08443c21.72849,6.67569 40.10929,-5.15545 42.71656,-20.58634c1.64233,-9.66498 -2.72148,-16.8448 -10.71656,-26.08049l-6.51421,-7.20345c-3.94634,-3.9424 -5.30117,-10.66141 -1.21699,-15.82474c3.44616,-4.35593 8.35348,-6.21489 16.39188,-4.02904c11.73268,3.18621 16.96295,11.32701 25.69058,17.89243c-3.60369,11.81932 -5.95889,23.68197 -8.0896,34.31975l-1.29969,7.93207c-6.23852,32.72073 -11.00012,50.68799 -23.37477,61.00282c-2.49304,1.77231 -6.05735,4.42684 -11.42941,4.61194c-2.816,0.08665 -3.72579,-1.85107 -3.76517,-2.6939c-0.06696,-1.97711 1.59901,-2.88296 2.70572,-3.77305c1.65415,-0.90191 4.15508,-2.39852 3.98572,-7.19163c-0.18117,-5.66351 -4.87187,-10.57477 -11.6539,-10.35028c-5.08062,0.1733 -12.82364,4.95459 -12.53219,13.70585c0.30326,9.03877 8.72763,15.81292 21.42917,15.38363c6.78991,-0.23237 21.95299,-2.99717 36.89551,-20.75963c17.39224,-20.36185 22.25624,-43.70511 25.91508,-60.79015l4.08418,-22.55557c2.26855,0.27175 4.69465,0.45292 7.33342,0.51593c21.66153,0.45687 32.49624,-10.76381 32.65772,-18.9243c0.10634,-4.93883 -3.24136,-9.7989 -7.92812,-9.68862c-3.35557,0.09452 -7.56973,2.32763 -8.58191,6.96714c-0.98856,4.55286 6.8923,8.66068 0.73255,12.65034c-4.37563,2.83175 -12.22104,4.82855 -23.26843,3.2059l2.00862,-11.10252c4.09993,-21.05501 9.15692,-46.95434 28.34117,-47.58449c1.39815,-0.07089 6.51421,0.06302 6.63236,3.44615c0.03545,1.13034 -0.24418,1.41785 -1.5675,4.00542c-1.34696,2.01649 -1.85502,3.73366 -1.792,5.70683c0.1851,5.376 4.27323,8.9088 10.18486,8.69612c7.91631,-0.256 10.19274,-7.96357 10.06277,-11.92172c-0.31902,-9.29871 -10.12185,-15.17489 -23.09908,-14.74954l0,0z" id="svg_2"/>
 </g>

</svg>