<svg xmlns="http://www.w3.org/2000/svg" viewBox="0 0 122.88 122.88">
	<path d="M17.89 0h88.9c8.85 0 16.1 7.24 16.1 16.1v90.68c0 8.85-7.24 16.1-16.1 16.1H16.1c-8.85 0-16.1-7.24-16.1-16.1v-88.9C0 8.05 8.05 0 17.89 0zm16.65 31.06h35.17c5.86 0 10.35 1.46 13.49 4.36 3.14 2.9 4.71 6.49 4.71 10.78 0 3.59-1.12 6.68-3.37 9.24-1.49 1.73-3.68 3.07-6.55 4.07 4.37 1.05 7.57 2.84 9.63 5.4 2.05 2.56 3.08 5.77 3.08 9.63 0 3.15-.74 5.98-2.19 8.5-1.47 2.52-3.48 4.5-6.01 5.97-1.58.91-3.96 1.57-7.14 1.98-4.23.55-7.03.83-8.42.83h-32.4V31.06zm18.92 23.85h8.19c2.93 0 4.98-.51 6.12-1.51 1.15-1.02 1.73-2.47 1.73-4.38 0-1.77-.58-3.15-1.73-4.14-1.15-1-3.15-1.5-6-1.5h-8.32v11.53h.01zm0 23.84h9.57c3.24 0 5.52-.58 6.85-1.73s1.99-2.67 1.99-4.61c0-1.8-.65-3.24-1.97-4.33-1.32-1.09-3.62-1.64-6.92-1.64h-9.53v12.31h.01z" fill="white" fill-rule="evenodd" clip-rule="evenodd" />
</svg>
